<svg xmlns="http://www.w3.org/2000/svg" width="203" height="25" viewBox="0 0 203 25"><path d="M161.2 8.7h-1.95v9.56h1.95V8.7z" fill="#373E4E" fill-opacity="0.73"/><path d="M160.23 4.72a1.24 1.24 0 00-1.18 1.7c.06.16.15.3.27.4a1.33 1.33 0 001.81 0 1.21 1.21 0 00.37-.9 1.14 1.14 0 00-.37-.86 1.27 1.27 0 00-.9-.34z" fill="#373E4E" fill-opacity="0.73"/><path d="M170.39 9.92c-.37-.4-.8-.7-1.3-.91a5.1 5.1 0 00-2-.4 5.28 5.28 0 00-2.48.58c-.73.37-1.33.94-1.75 1.64a4.63 4.63 0 00-.63 2.41 4.38 4.38 0 002.38 4.05c.76.4 1.61.6 2.47.58.66 0 1.32-.12 1.94-.37.48-.2.92-.49 1.28-.86v.4c0 1.01-.25 1.77-.74 2.26-.5.49-1.28.73-2.32.73-.66 0-1.32-.1-1.94-.31a4.64 4.64 0 01-1.55-.86l-.12-.1-.94 1.52.08.07c.57.5 1.25.85 1.98 1.05.82.25 1.68.37 2.54.37 1.63 0 2.87-.4 3.7-1.2.83-.8 1.25-2.05 1.25-3.7V8.7h-1.85v1.22zm-.45 4.82c-.26.44-.63.8-1.09 1.03-.48.25-1.03.38-1.58.37-.55 0-1.1-.12-1.6-.37a2.73 2.73 0 01-1.48-2.54c0-.86.3-1.56.86-2.08.56-.53 1.31-.8 2.22-.8.91 0 1.64.27 2.21.8.58.53.86 1.23.86 2.08 0 .53-.13 1.05-.4 1.51z" fill="#373E4E" fill-opacity="0.73"/><path d="M174.82 4.72a1.24 1.24 0 00-1.17 1.7c.06.16.15.3.27.4a1.33 1.33 0 001.81 0 1.21 1.21 0 00.37-.9 1.14 1.14 0 00-.37-.86 1.27 1.27 0 00-.9-.34z" fill="#373E4E" fill-opacity="0.73"/><path d="M175.8 8.7h-1.95v9.56h1.95V8.7z" fill="#373E4E" fill-opacity="0.73"/><path d="M182.5 8.62c-.7-.01-1.39.13-2.03.4-.45.2-.86.49-1.2.86V8.7h-1.87v9.56h1.94v-4.92c0-.95.25-1.69.75-2.2.49-.5 1.19-.75 2.06-.75.77 0 1.36.21 1.76.64.41.43.62 1.08.62 1.95v5.28h1.94v-5.48c0-1.35-.37-2.4-1.09-3.1a3.93 3.93 0 00-2.88-1.06z" fill="#373E4E" fill-opacity="0.73"/><path d="M195.22 9.75a3.71 3.71 0 00-1.22-.88 5.06 5.06 0 00-4.38.22c-.72.4-1.32 1-1.72 1.72a5.08 5.08 0 00-.62 2.54c-.02.88.2 1.76.62 2.54.4.73 1 1.32 1.72 1.73a5.04 5.04 0 004.44.2c.47-.23.89-.54 1.23-.93v1.35h1.88V8.57h-1.95v1.18zm-.36 5.25c-.25.46-.62.85-1.08 1.1a3.2 3.2 0 01-3.07 0 2.86 2.86 0 01-1.07-1.1c-.27-.5-.4-1.07-.4-1.65 0-.57.13-1.14.4-1.65a2.8 2.8 0 011.08-1.1 3.26 3.26 0 013.07 0c.45.26.82.64 1.07 1.1.26.51.4 1.08.38 1.65.02.58-.12 1.14-.38 1.65z" fill="#373E4E" fill-opacity="0.73"/><path d="M202.8 16.32l-.17.08c-.24.11-.5.17-.77.16-.45 0-.77-.12-.99-.36-.2-.24-.32-.6-.32-1.07V4.86h-1.94v10.4c0 .94.26 1.67.77 2.2.52.51 1.25.78 2.19.78.42 0 .85-.08 1.25-.22l.1-.04-.12-1.66z" fill="#373E4E" fill-opacity="0.73"/><path d="M154.76 10.1V8.7h-1.94v9.56h1.94V12.7a2.93 2.93 0 012.84-2.39c.17 0 .48 0 .57.02V8.7c-.82 0-1.7.14-2.27.42-.46.22-.85.56-1.14.98z" fill="#373E4E" fill-opacity="0.73"/><path d="M149.37 13.53c0 .95-.25 1.69-.75 2.2-.49.5-1.19.75-2.06.75-.77 0-1.36-.21-1.77-.64-.4-.43-.61-1.08-.61-1.95V8.61h-1.94v5.48c0 1.35.37 2.4 1.09 3.1.71.7 1.7 1.06 2.9 1.06a5 5 0 002.03-.4c.45-.2.86-.48 1.2-.85v1.25h1.86V8.61h-1.93l-.02 4.92z" fill="#373E4E" fill-opacity="0.73"/><path d="M139.84 7.52a6.88 6.88 0 00-2.95-2.42h-.01l-.05-.02a6.1 6.1 0 00-.42-.16l-.07-.03.06.02a6.86 6.86 0 00-7.94 10.22c.9.56 1.95.82 3 .75.1 0 .32-.04.44-.06a4.97 4.97 0 01-2.57-4.4 5.1 5.1 0 014.98-4.96 4.97 4.97 0 014.75 3.73c.06-.1.14-.22.17-.3.48-.98.66-1.56.61-2.37z" fill="#373E4E" fill-opacity="0.73"/><path d="M141.03 11a4.84 4.84 0 01-1.92 2.28c-.07.05-.23.12-.34.17l-.02.02a4.97 4.97 0 01-6.57 2.49h-.01l-.4.09a4.93 4.93 0 01-3.07-.57A6.85 6.85 0 00141.04 11z" fill="#373E4E" fill-opacity="0.73"/><path d="M140.04 7.82a4.39 4.39 0 01-.94 2.63l-.01.02a4.94 4.94 0 01-.22 2.72h.02c.1-.05.2-.1.29-.17.86-.61 1.5-1.5 1.83-2.5a6.87 6.87 0 00-.97-2.7z" fill="#373E4E" fill-opacity="0.73"/><path d="M102.91 18.4h1.75v-.71c0-.42-.04-.73-.04-.73h.04s.88 1.66 3.03 1.66c2.53 0 4.38-1.98 4.38-5.04 0-3-1.64-5.05-4.23-5.05-2.26 0-3.08 1.64-3.08 1.64h-.04s.04-.34.04-.82v-4.4h-1.85V18.4zm1.79-4.79c0-2.45 1.33-3.46 2.78-3.46 1.6 0 2.72 1.35 2.72 3.44 0 2.2-1.26 3.45-2.78 3.45-1.83 0-2.72-1.71-2.72-3.43z" fill="#373E4E" fill-opacity="0.73"/><path d="M112.18 21.8s.78.59 1.86.59c1.36 0 2.54-.78 3.13-2.27l4.5-11.36h-2l-2.33 6.32c-.17.5-.33 1.14-.33 1.14h-.03s-.17-.67-.37-1.16l-2.41-6.3h-2.08l4.04 9.52-.48 1.1c-.36.88-.99 1.4-1.73 1.4-.6 0-1.12-.39-1.12-.39l-.65 1.4z" fill="#373E4E" fill-opacity="0.73"/><path fill-rule="evenodd" clip-rule="evenodd" d="M5.67 11.43l.07-.36a4.05 4.05 0 002.6-.25c1.11-.61 1.58-1.68 1.58-3.08 0-2.3-1.25-3.76-3.86-3.76-.21 0-.96 0-1.1.14-.1.1-.18.23-.22.36 0 .57-.07 1.3-.07 5.87 0 3.84.04 4.8.07 5.59.1.61.22.86.9 1.07l1.67.22c.1.14.07.86-.07.97l-3.64-.08-3.43.11c-.1-.1-.1-.82 0-.93l1.43-.21c.6-.18.64-.68.71-1.4V5.23c-.03-.86-.21-1.07-1-1.21L.03 3.8c-.07-.14 0-.82.1-.93l3 .07h4.33c.89 0 2.39.1 3.39.93a4.21 4.21 0 011.57 3.44c0 2.3-1.43 3.72-2.71 4.33a5.8 5.8 0 01-3.72.5c-.14-.1-.28-.57-.36-.71h.04zm8.07 5.8c.5-.07.78-.1 1.07-.25.32-.1.4-.36.43-.65.1-.64.14-2.25.14-6.4 0-1.8 0-4.59-.07-5.38 0-.21-.04-.79-.36-.86l-1.53-.25c-.1-.07-.1-.71.07-.79 1.37-.16 2.7-.48 4-.96.07.03.21.25.21.36-.18.43-.21.71-.21 1.6l-.07 6.27c0 3.76 0 5.38.07 6.02 0 .61.07.93.57 1.07.36.11.43.15 1.07.22.07.18 0 .82-.14.97-.57 0-1.22-.08-2.75-.08l-2.5.08c-.07-.15-.14-.8 0-.97zm12.07-3.87c-.72.25-2.25.72-2.82 1.08-.11 0-.29.5-.29.78 0 .9.64 1.58 1.72 1.58.28 0 .85-.14 1.17-.36.22-.18.25-.36.32-.64l.04-2.33s-.07-.14-.14-.1zm-.15-3.11c-.35-.61-1.14-.9-1.78-.9-.64 0-1.07.18-1.1.25a7.22 7.22 0 00-1.04 1.76c-.11.1-.97-.29-.93-.5.1-.44.5-1.58.71-1.72 1.04-.68 2.68-1.33 3.29-1.33 1.18 0 2.03.54 2.57 1.36.46.75.64 1.5.64 2.5l-.14 4.16c0 .54.21.9.96.9.36 0 .54-.04.86-.1.04.1 0 .85-.1.92a3.2 3.2 0 01-2.15.86c-.75 0-1.18-.36-1.36-.72l-.18-.53-.1-.04c-1.43.86-2.32 1.3-3.07 1.3-.47 0-1-.33-1.43-.73a3.2 3.2 0 01-.82-2.18c0-.72.46-1.5.53-1.58.97-.46 3.72-1.07 4.72-1.57.07 0 .14-.18.17-.25l.04-.43c0-.47 0-1-.32-1.43h.03zm7.29.9c0 1.42.64 2.96 2.32 2.96.32 0 .82-.14 1.07-.39.36-.36.68-1.07.68-1.97 0-1.43-.6-2.86-2.29-2.86-1.03 0-1.78.82-1.78 2.25zm5.9 9.45c0-.72-.37-1.33-1.22-1.65-.68-.22-1.79-.36-3.04-.36-.31 0-.62.07-.9.21-.88.61-1.28 1.19-1.28 1.8 0 .57.25 1.07.75 1.5a3.7 3.7 0 002.54.79c2.18 0 3.14-1.18 3.14-2.3zm-.97-12.25c.35.14.78.25 1.35.25.86 0 1.18-.29 1.5-.6.11 0 .4.17.43.2 0 .36-.36 1.22-.6 1.51-.19.21-.4.4-.97.4h-.54l-.07.06.11.83c0 1.79-.64 2.61-1.5 3.26a5 5 0 01-2.57 1l-.57.04c-.18.07-.54.25-.54.57 0 .46.4.68 1.07.71 1.25.11 3.22.22 4.07.5a2.5 2.5 0 011.68 2.44c0 1.58-1.07 3.15-3.07 4.15-.91.44-1.91.66-2.93.65a4.89 4.89 0 01-3.14-.93 3.05 3.05 0 01-1.18-2.22c0-.22.11-.9.22-1 .7-.7 1.46-1.32 2.28-1.87-.96-.35-1.35-.96-1.5-1.43 0-.14.15-.46.15-.54.35-.25 1.25-.71 1.6-1.07v-.1c-1.32-.44-2.32-1.44-2.32-3.45 0-1 .43-2.1 1.43-2.82a6.71 6.71 0 013.21-1.08c1 0 1.61.25 2.4.54zm12.42 8.3c.64.47 1.5.65 2.4.65 1.06 0 2.53-.64 2.5-2.5-.04-1.55-1-2.15-3.3-3.4-2.38-1.26-3.88-2.37-3.92-4.66-.07-2.76 2.07-4.3 4.86-4.37 1.85-.07 2.93.25 4 .36-.18 1.18-.3 2.38-.36 3.58-.04.21-.82.21-.93.07-.18-1.29-.4-2.08-.96-2.47a3.6 3.6 0 00-2.07-.5 2.36 2.36 0 00-2.43 2.43c.03 1.4.68 1.97 1.78 2.62 1 .6 2.4 1.18 3.29 1.68 1.4.79 2.32 1.79 2.4 3.58.03 2.33-1.9 4.65-5.58 4.76-1.57 0-3.07-.5-3.71-.71-.25-.29-.82-3.01-.93-3.94.03-.18.9-.4 1.03-.33.5 1.47 1.04 2.51 1.93 3.16zm18.03 1.8a4.38 4.38 0 01-3.7-1.8c-.67-.99-1-2.17-.97-3.36 0-1.9.85-3.44 2.57-4.44a7.02 7.02 0 013.17-1.04c1.08 0 1.72.22 2.15.47.46.18.68.4.78.64l-.03.47c-.18.46-.72 1.07-.93 1.14-.07.04-.22.07-.25.04-.6-.57-1.57-1.4-2.86-1.4-1.85 0-2.53 1.61-2.53 3.22 0 1.08.28 2.15.96 2.94a3.32 3.32 0 002.71 1.22c.9 0 1.86-.25 2.9-1.22.07 0 .18.14.18.25-.01.32-.07.63-.18.93a5.35 5.35 0 01-3.97 1.94zm11-5.09c-.71.25-2.25.72-2.86 1.08-.1 0-.25.5-.25.78 0 .9.61 1.58 1.72 1.58.28 0 .86-.14 1.14-.36.25-.18.29-.36.36-.64v-2.33s-.04-.14-.1-.1zm-.14-3.11a2.14 2.14 0 00-1.79-.9c-.71 0-1.07.18-1.1.25-.33.25-.72 1.08-1.08 1.76-.07.1-.96-.29-.89-.5.07-.44.47-1.58.68-1.72 1.07-.68 2.68-1.33 3.32-1.33 1.14 0 2.04.54 2.57 1.36.47.75.61 1.5.61 2.5l-.07 4.2c0 .54.21.9.93.9.35 0 .57-.04.89-.11 0 .1 0 .86-.1.93a3.2 3.2 0 01-2.15.86c-.75 0-1.21-.36-1.36-.72l-.18-.54c0-.03-.1-.07-.14-.03-1.4.86-2.28 1.29-3.03 1.29-.47 0-1-.33-1.43-.72a3.2 3.2 0 01-.86-2.18c0-.72.5-1.47.57-1.58.93-.47 3.72-1.07 4.72-1.58l.17-.25.04-.43c0-.46 0-1-.32-1.43v-.03zm5.85 6.84c.36-.11.54-.36.54-.8.07-.7.07-2.43.07-4v-1.8c-.1-.32-.53-.64-1.43-1.07 0-.18.07-.64.18-.71 1.04-.11 2.6-.58 3.22-.9 0 0 .14.1.14.18l-.04 1.36c0 .07.11.07.14.04 1.08-.9 2.32-1.58 3.29-1.58 1.07 0 1.93.5 2.5 1.33.5.71.71 1.79.71 2.97v4.4l.18.36c.47.22.86.29 1.43.36.07.18 0 .82-.1.97-.36 0-1.22-.08-2.58-.08l-2.43.08c-.1-.15-.14-.83 0-.97.34-.02.68-.08 1-.18.32-.1.36-.36.36-1.22 0-1.6.07-3.5-.03-4.44a2.12 2.12 0 00-.72-1.36 2.1 2.1 0 00-1.46-.5 3.2 3.2 0 00-2 .72c-.18.14-.29.35-.29.82l.04 5.26c.03.47.14.65.53.72.29.1.57.14 1 .18.11.14.04.82-.1.97-.36 0-1.08-.08-2.5-.08l-2.54.08c-.14-.15-.14-.86 0-.97l.9-.18v.04zm-25.34.85a10.35 10.35 0 01-16.9-4.07A10.4 10.4 0 0154.41.17c1.79.33 3.46 1.12 4.84 2.3h.04a10.42 10.42 0 011.52 14.23c.1.01.2.05.27.14l.57.46.1.14c.08.08.22.3.22.4l-.1.21.1.07h.21c.25 0 .57.04.97.4l4.25 3.58c1.42 1.32.96 2.15.71 2.4l-.14.14c-.15.14-.36.36-.75.36-.5 0-1.04-.32-1.65-.86l-3.92-4.01a1.43 1.43 0 01-.47-.93v-.25l-.07-.07-.18.14c-.14 0-.32-.14-.39-.22-.07 0-.1-.03-.18-.1l-.5-.47a.64.64 0 01-.16-.3zm.13-1.4A9.6 9.6 0 0054.26.94a9.54 9.54 0 00-11.1 7.71 9.6 9.6 0 007.68 11.14 9.53 9.53 0 009-3.23z" fill="#405C77"/></svg>