<svg version="1.1" viewBox="0 0 230 230" xmlns="http://www.w3.org/2000/svg" xmlns:xlink="http://www.w3.org/1999/xlink"> <defs> <rect height="211" id="b" rx="9" width="150" x="37.996" y="6.0872"></rect> <filter filterUnits="objectBoundingBox" height="103.8%" id="d" width="104.7%" x="-1.3%" y="-.9%"> <feOffset dx="3" dy="4" in="SourceAlpha" result="shadowOffsetOuter1"></feOffset> <feComposite in="shadowOffsetOuter1" in2="SourceAlpha" operator="out" result="shadowOffsetOuter1"></feComposite> <feColorMatrix in="shadowOffsetOuter1" type="matrix" values="0 0 0 0 0.7   0 0 0 0 0.7   0 0 0 0 0.7  0 0 0 1 0"></feColorMatrix> </filter> <rect height="3" id="a" transform="translate(0 9.77778)" width="222" x="4" y="111"> <animateTransform attributeName="transform" begin="0s" dur="6s" repeatCount="indefinite" type="translate" values="0 0;0 20;0 0"></animateTransform> </rect> <filter filterUnits="objectBoundingBox" height="566.7%" id="c" width="106.3%" x="-3.2%" y="-166.7%"> <feOffset dx="0" dy="2" in="SourceAlpha" result="shadowOffsetOuter1"></feOffset> <feGaussianBlur in="shadowOffsetOuter1" result="shadowBlurOuter1" stdDeviation="2"></feGaussianBlur> <feColorMatrix in="shadowBlurOuter1" type="matrix" values="0 0 0 0 1   0 0 0 0 0   0 0 0 0 0  0 0 0 0.5 0"></feColorMatrix> </filter> </defs> <g fill="none" fill-rule="evenodd"> <g transform="translate(113 111.59) rotate(5) translate(-113 -111.59)"> <use fill="black" filter="url(#d)" xlink:href="#b"></use> <use fill="#FFFFFF" fill-rule="evenodd" xlink:href="#b"></use> <rect height="209" rx="8" stroke="#405C77" stroke-width="2" width="148" x="38.996" y="7.0872"></rect> </g> <circle cx="82.996" cy="47.087" fill="#EF9200" r="19" transform="translate(82.996 47.087) rotate(5) translate(-82.996 -47.087)"></circle> <path d="m56.996 95.087h110v10h-110v-10zm0 22h110v10h-110v-10zm0 22h50v10h-50v-10z" fill="#D8D8D8" transform="translate(112 122.09) rotate(5) translate(-112 -122.09)"></path> <use fill="black" filter="url(#c)" xlink:href="#a"></use> <use fill="#FF0000" fill-rule="evenodd" xlink:href="#a"></use> </g> </svg>