<svg style="enable-background:new 0 0 230 230;" version="1.1" viewBox="0 0 230 230" x="0px" xml:space="preserve" xmlns="http://www.w3.org/2000/svg" xmlns:xlink="http://www.w3.org/1999/xlink" y="0px">
<style type="text/css">.st0{fill:#EEEEEE;}
	.st1{fill:none;stroke:#405C77;stroke-width:2;}
	.st2{fill:#FFFFFF;}
	.st3{fill:#405C77;}
	.st4{fill:none;stroke:#9F9F9F;stroke-width:2;}
</style>
<title></title>
<g> <ellipse class="st0" cx="115" cy="195" rx="115" ry="12"></ellipse> <g> <g> <rect class="st0" height="12" width="21" x="26" y="183"></rect> </g> <rect class="st1" height="10" width="19" x="27" y="184"></rect> </g> <g> <g> <rect class="st0" height="12" width="20" x="184" y="183"></rect> </g> <rect class="st1" height="10" width="18" x="185" y="184"></rect> </g> <g> <g> <path class="st0" d="M19,23h192c1.1,0,2,0.9,2,2v158c0,1.1-0.9,2-2,2H19c-1.1,0-2-0.9-2-2V25C17,23.9,17.9,23,19,23z
				"></path> </g> <path class="st1" d="M20,24h190c1.1,0,2,0.9,2,2v156c0,1.1-0.9,2-2,2H20c-1.1,0-2-0.9-2-2V26C18,24.9,18.9,24,20,24z"></path> </g> <g> <g> <path class="st2" d="M34,40h162c1.1,0,2,0.9,2,2v124c0,1.1-0.9,2-2,2H34c-1.1,0-2-0.9-2-2V42C32,40.9,32.9,40,34,40z
				"></path> </g> <path class="st1" d="M35,41h160c1.1,0,2,0.9,2,2v122c0,1.1-0.9,2-2,2H35c-1.1,0-2-0.9-2-2V43C33,41.9,33.9,41,35,41z"></path> </g> <g> <g> <circle class="st0" cx="115" cy="104" r="25"></circle> </g> <circle class="st1" cx="115" cy="104" r="26"></circle> </g> <g> <g> <circle class="st3" cx="115" cy="104" r="7"></circle> </g> <circle class="st4" cx="115" cy="104" r="8"></circle> </g> <rect class="st3" height="18" width="10" x="28" y="59"></rect> <rect class="st3" height="18" width="10" x="28" y="131"></rect> <circle class="st3" cx="182" cy="54" r="3"></circle> <circle class="st3" cx="182" cy="154" r="3"></circle><rect fill="#405C77" height="6" rx="3" transform="rotate(-15.4 115.7 104)" width="106" x="62.0012658" y="101"><animateTransform attributeName="transform" attributeType="XML" dur="1.5s" repeatCount="indefinite" type="rotate" values="-17 115.7 104; -8 115.7 104; -17 115.7 104"></animateTransform></rect> </g> </svg>